<svg version="1" xmlns="http://www.w3.org/2000/svg" width="933.333" height="933.333" viewBox="0 0 700.000000 700.000000"><path d="M400 1.5c-13.6 3-24.9 8.7-32.5 16.5-7.8 7.9-9.5 10.3-14.1 19.6-8.8 17.9-10.1 37.2-3.8 55.7 2.7 8 2.7 8 1.5 7.3-.5-.3-5.7-.8-11.7-1.1-37.4-2-70.6-2-88.9 0-10.6 1.1-21.9 2.6-22.4 2.9-.3.2-2.8.7-5.5 1-2.7.4-5.3.9-5.6 1.1-.4.2-2.1.7-3.8 1-5.7 1-24.5 7.5-32.2 11.1-26.4 12.5-43.7 32.2-48.5 55.2-2.5 11.9-1.4 33.2 2.5 46.2.9 3.2.6 4-5.4 14-16.2 26.7-20.9 42-20.8 67.5.1 10.8.4 14.5 2.7 27.5 1.8 10.5 1.8 10.1 4.9 23.2 1.4 5.9 2.8 12.8 3.2 15.3l.6 4.7-2.7-1.8c-3-1.9-11.2-11.7-12.8-15.2-1.6-3.6-2.6-2.5-1.6 1.8 1.8 7.9 9.7 21.2 15.2 25.9 1.4 1.1 1.3 1.8-.4 6.8-3.4 9.9-10 19.3-24 33.8-23.7 24.6-24.9 26.9-19.4 38 3.3 6.8 10.7 13.5 21.3 19.2 4.2 2.3 8.2 5.2 8.9 6.4 1.7 3.3.8 10.4-2 15.2-3.2 5.5-4.1 10.9-2.7 15.3 1.6 4.6 9.6 10.9 16.6 13 3 .8 5.4 2 5.4 2.5s-.5.9-1 .9c-1.3 0-6.4 3.5-10.3 6.9-3 2.8-5.1 8.8-4.2 12.4 1 3.8 4.9 7.5 10.8 10.2 7.8 3.6 9.2 6.9 8.1 18.4-1.9 20.8-.2 28.7 7.9 35.6 10.3 8.8 27.1 9.2 65.2 1.5 6-1.2 12-2.4 13.4-2.6 1.4-.3 4.9-.9 7.6-1.4 8.8-1.7 16.7-2.3 27.1-2.3 8.1.1 11.5.6 17.4 2.7 8.3 2.9 16.8 8.3 21.2 13.5 5.3 6.3 14.3 32.3 18.9 54.6 3.8 18.6 2.6 18 34.9 18.1 27.8 0 43.8-.9 57.9-3.6 8.3-1.5 30.2-9.2 40.3-14.2 17.2-8.3 45.9-30.8 51.9-40.4 3.8-6.3 3.9-8.5.9-18.2-1.6-5-3.3-12.3-3.9-16.3-1.7-10.7-1.5-35.3.4-49.4.2-1.7.7-5.3 1-8 1.1-8.4 4.4-21.4 6.4-25.4 1.1-2.1 5.1-6.3 8.8-9.3 20.8-16.8 43.9-43.4 56.9-65.4 9.7-16.4 19.9-40.5 23.6-55.4 5.8-23.6 6.3-29.4 6.2-65.5-.1-29.9-.3-32.3-5.9-58.8-1.4-6.8-8.8-27.7-12.9-36.3-2.5-5.2-6.9-13.2-10-17.8l-5.5-8.5 7.2-2.7c32.4-12.1 54.6-34.1 61.6-60.9 7.8-29.5 2.5-55.5-16.4-80.7-8.3-11-20.8-22.8-27.8-26.1-16.2-7.6-33.6-8.3-54.7-2.1-11.9 3.5-24.7 9.4-33.8 15.7-4.7 3.1-5.4 3-6-1.1-1.3-9.6-8.2-22.9-15.8-30.5-7.2-7-23.6-14.8-36.4-17.2-6.6-1.2-27.4-1.2-33 0z"/></svg>